<svg xmlns="http://www.w3.org/2000/svg" xmlns:xlink="http://www.w3.org/1999/xlink" xmlns:fi="http://pattern.flaticon.com/" x="0" y="0" width="700" height="350" viewBox="0 0 700 350"><rect x="0px" y="0px" width="100%" height="100%" opacity="0" fill="#ffffff"/><defs><g transform="matrix(1.0833853483200073 0 0 1.0833853483200073 278.3385590141579 116.33385497246383)" id="L1_5"><path d="M27.557,12c-3.859,0-7,3.141-7,7s3.141,7,7,7s7-3.141,7-7S31.416,12,27.557,12z M27.557,24c-2.757,0-5-2.243-5-5   s2.243-5,5-5s5,2.243,5,5S30.314,24,27.557,24z" fill="#ffffff"/><path d="M40.94,5.617C37.318,1.995,32.502,0,27.38,0c-5.123,0-9.938,1.995-13.56,5.617c-6.703,6.702-7.536,19.312-1.804,26.952   L27.38,54.757L42.721,32.6C48.476,24.929,47.643,12.319,40.94,5.617z M41.099,31.431L27.38,51.243L13.639,31.4   C8.44,24.468,9.185,13.08,15.235,7.031C18.479,3.787,22.792,2,27.38,2s8.901,1.787,12.146,5.031   C45.576,13.08,46.321,24.468,41.099,31.431z" fill="#ffffff"/></g><path d="M50.976,26.194C50.447,17.194,43.028,10,34.085,10c-5.43,0-10.688,2.663-13.946,7.008c-0.075-0.039-0.154-0.066-0.23-0.102  c-0.198-0.096-0.399-0.187-0.604-0.269c-0.114-0.045-0.228-0.086-0.343-0.126c-0.203-0.071-0.409-0.134-0.619-0.191  c-0.115-0.031-0.229-0.063-0.345-0.089c-0.225-0.051-0.455-0.09-0.687-0.125c-0.101-0.015-0.2-0.035-0.302-0.046  C16.677,16.023,16.341,16,16,16c-4.963,0-9,4.037-9,9c0,0.127,0.008,0.252,0.016,0.377v0.004C2.857,27.649,0,32.399,0,37.154  C0,44.237,5.762,50,12.845,50h24.508c0.104,0,0.207-0.006,0.311-0.014l0.062-0.008l0.134,0.008C37.962,49.994,38.064,50,38.169,50  h9.803C54.604,50,60,44.604,60,37.972C60,32.483,56.173,27.56,50.976,26.194z M47.972,48h-9.803c-0.059,0-0.116-0.005-0.174-0.009  l-0.271-0.011l-0.198,0.011C37.469,47.995,37.411,48,37.353,48H12.845C6.865,48,2,43.135,2,37.154C2,33,4.705,28.688,8.433,26.901  L9,26.63V26c0-0.127,0.008-0.256,0.015-0.386l0.009-0.16l-0.012-0.21C9.006,25.163,9,25.082,9,25c0-3.859,3.141-7,7-7  c0.309,0,0.614,0.027,0.917,0.067c0.078,0.01,0.156,0.023,0.233,0.036c0.267,0.044,0.53,0.102,0.789,0.177  c0.035,0.01,0.071,0.017,0.106,0.027c0.285,0.087,0.563,0.197,0.835,0.321c0.071,0.032,0.14,0.067,0.21,0.101  c0.24,0.119,0.475,0.249,0.702,0.396C21.719,20.373,23,22.538,23,25c0,0.553,0.447,1,1,1s1-0.447,1-1c0-2.754-1.246-5.219-3.2-6.871  C24.667,14.379,29.388,12,34.085,12c7.745,0,14.177,6.135,14.848,13.888c-1.022-0.072-2.552-0.109-4.083,0.124  c-0.546,0.083-0.921,0.593-0.838,1.139c0.075,0.495,0.501,0.85,0.987,0.85c0.05,0,0.101-0.004,0.151-0.012  c2.227-0.337,4.548-0.021,4.684-0.002C54.49,28.872,58,33.161,58,37.972C58,43.501,53.501,48,47.972,48z" transform="matrix(1.8027756919715587 0.30508513092945844 -0.30508513092945844 1.8027756919715587 155.069283168737 148.76417531296948)" id="L1_7" fill="#ffffff"/><g transform="matrix(0.7986273765563965 0 0 0.7986273765563965 299.6384325027466 242.63843250274658)" id="L1_8"><path d="M8,14c3.519,0,6.432-2.614,6.92-6H54c0.553,0,1-0.447,1-1s-0.447-1-1-1H14.92C14.432,2.614,11.519,0,8,0   C4.14,0,1,3.141,1,7S4.14,14,8,14z M8,2c2.757,0,5,2.243,5,5s-2.243,5-5,5S3,9.757,3,7S5.243,2,8,2z" fill="#ffffff"/><path d="M48,42c-3.519,0-6.432,2.614-6.92,6H2c-0.552,0-1,0.447-1,1s0.448,1,1,1h39.08c0.488,3.386,3.401,6,6.92,6   c3.859,0,7-3.141,7-7S51.859,42,48,42z M48,54c-2.757,0-5-2.243-5-5s2.243-5,5-5s5,2.243,5,5S50.757,54,48,54z" fill="#ffffff"/><path d="M54,27H35.368c-0.396-3.602-3.455-6.414-7.161-6.414c-3.706,0-6.765,2.813-7.161,6.414H2c-0.552,0-1,0.447-1,1s0.448,1,1,1   h19.109c0.577,3.4,3.536,6,7.098,6c3.562,0,6.52-2.6,7.097-6H54c0.553,0,1-0.447,1-1S54.553,27,54,27z M28.207,33   C25.336,33,23,30.664,23,27.793s2.336-5.207,5.207-5.207s5.207,2.336,5.207,5.207S31.078,33,28.207,33z" fill="#ffffff"/></g><path d="M53.627,49.385L37.795,33.553C40.423,30.046,42,25.709,42,21C42,9.42,32.58,0,21,0S0,9.42,0,21s9.42,21,21,21  c4.709,0,9.046-1.577,12.553-4.205l15.832,15.832L53.627,49.385z M2,21C2,10.523,10.523,2,21,2s19,8.523,19,19s-8.523,19-19,19  S2,31.477,2,21z M35.567,36.093c0.178-0.172,0.353-0.347,0.525-0.525c0.146-0.151,0.304-0.29,0.445-0.445l14.262,14.262  l-1.415,1.415L35.123,36.537C35.278,36.396,35.416,36.238,35.567,36.093z" transform="matrix(1.1188393831253052 0 0 1.1188393831253052 175 71)" id="L1_9" fill="#ffffff"/><g transform="matrix(1.4715420007705688 0 0 1.4715420007705688 33.268367409706116 124.26836740970612)" id="L1_10"><path d="M27,8c-9.374,0-17,7.626-17,17c0,7.112,4.391,13.412,11,15.9V50c0,0.553,0.447,1,1,1h1v2c0,0.553,0.447,1,1,1h6   c0.553,0,1-0.447,1-1v-2h1c0.553,0,1-0.447,1-1v-9.1c6.609-2.488,11-8.788,11-15.9C44,15.626,36.374,8,27,8z M30,49   c-0.553,0-1,0.447-1,1v2h-4v-2c0-0.553-0.447-1-1-1h-1v-5h8v5H30z M31.688,39.242C31.277,39.377,31,39.761,31,40.192V42h-8v-1.808   c0-0.432-0.277-0.815-0.688-0.95C16.145,37.214,12,31.49,12,25c0-8.271,6.729-15,15-15s15,6.729,15,15   C42,31.49,37.855,37.214,31.688,39.242z" fill="#ffffff"/><path d="M27,6c0.553,0,1-0.447,1-1V1c0-0.553-0.447-1-1-1s-1,0.447-1,1v4C26,5.553,26.447,6,27,6z" fill="#ffffff"/><path d="M51,24h-4c-0.553,0-1,0.447-1,1s0.447,1,1,1h4c0.553,0,1-0.447,1-1S51.553,24,51,24z" fill="#ffffff"/><path d="M7,24H3c-0.553,0-1,0.447-1,1s0.447,1,1,1h4c0.553,0,1-0.447,1-1S7.553,24,7,24z" fill="#ffffff"/><path d="M43.264,7.322l-2.828,2.828c-0.391,0.391-0.391,1.023,0,1.414c0.195,0.195,0.451,0.293,0.707,0.293   s0.512-0.098,0.707-0.293l2.828-2.828c0.391-0.391,0.391-1.023,0-1.414S43.654,6.932,43.264,7.322z" fill="#ffffff"/><path d="M12.15,38.436l-2.828,2.828c-0.391,0.391-0.391,1.023,0,1.414c0.195,0.195,0.451,0.293,0.707,0.293   s0.512-0.098,0.707-0.293l2.828-2.828c0.391-0.391,0.391-1.023,0-1.414S12.541,38.045,12.15,38.436z" fill="#ffffff"/><path d="M41.85,38.436c-0.391-0.391-1.023-0.391-1.414,0s-0.391,1.023,0,1.414l2.828,2.828c0.195,0.195,0.451,0.293,0.707,0.293   s0.512-0.098,0.707-0.293c0.391-0.391,0.391-1.023,0-1.414L41.85,38.436z" fill="#ffffff"/><path d="M12.15,11.564c0.195,0.195,0.451,0.293,0.707,0.293s0.512-0.098,0.707-0.293c0.391-0.391,0.391-1.023,0-1.414l-2.828-2.828   c-0.391-0.391-1.023-0.391-1.414,0s-0.391,1.023,0,1.414L12.15,11.564z" fill="#ffffff"/><path d="M27,13c-6.617,0-12,5.383-12,12c0,0.553,0.447,1,1,1s1-0.447,1-1c0-5.514,4.486-10,10-10c0.553,0,1-0.447,1-1   S27.553,13,27,13z" fill="#ffffff"/></g><g transform="matrix(0.9442628622055054 0 0 0.9442628622055054 309.50490415096283 33.50490415096283)" id="L1_11"><path d="M51.22,21h-5.052c-0.812,0-1.481-0.447-1.792-1.197s-0.153-1.54,0.42-2.114l3.572-3.571   c0.525-0.525,0.814-1.224,0.814-1.966c0-0.743-0.289-1.441-0.814-1.967l-4.553-4.553c-1.05-1.05-2.881-1.052-3.933,0l-3.571,3.571   c-0.574,0.573-1.366,0.733-2.114,0.421C33.447,9.313,33,8.644,33,7.832V2.78C33,1.247,31.753,0,30.22,0H23.78   C22.247,0,21,1.247,21,2.78v5.052c0,0.812-0.447,1.481-1.197,1.792c-0.748,0.313-1.54,0.152-2.114-0.421l-3.571-3.571   c-1.052-1.052-2.883-1.05-3.933,0l-4.553,4.553c-0.525,0.525-0.814,1.224-0.814,1.967c0,0.742,0.289,1.44,0.814,1.966l3.572,3.571   c0.573,0.574,0.73,1.364,0.42,2.114S8.644,21,7.832,21H2.78C1.247,21,0,22.247,0,23.78v6.439C0,31.753,1.247,33,2.78,33h5.052   c0.812,0,1.481,0.447,1.792,1.197s0.153,1.54-0.42,2.114l-3.572,3.571c-0.525,0.525-0.814,1.224-0.814,1.966   c0,0.743,0.289,1.441,0.814,1.967l4.553,4.553c1.051,1.051,2.881,1.053,3.933,0l3.571-3.572c0.574-0.573,1.363-0.731,2.114-0.42   c0.75,0.311,1.197,0.98,1.197,1.792v5.052c0,1.533,1.247,2.78,2.78,2.78h6.439c1.533,0,2.78-1.247,2.78-2.78v-5.052   c0-0.812,0.447-1.481,1.197-1.792c0.751-0.312,1.54-0.153,2.114,0.42l3.571,3.572c1.052,1.052,2.883,1.05,3.933,0l4.553-4.553   c0.525-0.525,0.814-1.224,0.814-1.967c0-0.742-0.289-1.44-0.814-1.966l-3.572-3.571c-0.573-0.574-0.73-1.364-0.42-2.114   S45.356,33,46.168,33h5.052c1.533,0,2.78-1.247,2.78-2.78V23.78C54,22.247,52.753,21,51.22,21z M52,30.22   C52,30.65,51.65,31,51.22,31h-5.052c-1.624,0-3.019,0.932-3.64,2.432c-0.622,1.5-0.295,3.146,0.854,4.294l3.572,3.571   c0.305,0.305,0.305,0.8,0,1.104l-4.553,4.553c-0.304,0.304-0.799,0.306-1.104,0l-3.571-3.572c-1.149-1.149-2.794-1.474-4.294-0.854   c-1.5,0.621-2.432,2.016-2.432,3.64v5.052C31,51.65,30.65,52,30.22,52H23.78C23.35,52,23,51.65,23,51.22v-5.052   c0-1.624-0.932-3.019-2.432-3.64c-0.503-0.209-1.021-0.311-1.533-0.311c-1.014,0-1.997,0.4-2.761,1.164l-3.571,3.572   c-0.306,0.306-0.801,0.304-1.104,0l-4.553-4.553c-0.305-0.305-0.305-0.8,0-1.104l3.572-3.571c1.148-1.148,1.476-2.794,0.854-4.294   C10.851,31.932,9.456,31,7.832,31H2.78C2.35,31,2,30.65,2,30.22V23.78C2,23.35,2.35,23,2.78,23h5.052   c1.624,0,3.019-0.932,3.64-2.432c0.622-1.5,0.295-3.146-0.854-4.294l-3.572-3.571c-0.305-0.305-0.305-0.8,0-1.104l4.553-4.553   c0.304-0.305,0.799-0.305,1.104,0l3.571,3.571c1.147,1.147,2.792,1.476,4.294,0.854C22.068,10.851,23,9.456,23,7.832V2.78   C23,2.35,23.35,2,23.78,2h6.439C30.65,2,31,2.35,31,2.78v5.052c0,1.624,0.932,3.019,2.432,3.64   c1.502,0.622,3.146,0.294,4.294-0.854l3.571-3.571c0.306-0.305,0.801-0.305,1.104,0l4.553,4.553c0.305,0.305,0.305,0.8,0,1.104   l-3.572,3.571c-1.148,1.148-1.476,2.794-0.854,4.294c0.621,1.5,2.016,2.432,3.64,2.432h5.052C51.65,23,52,23.35,52,23.78V30.22z" fill="#ffffff"/><path d="M27,18c-4.963,0-9,4.037-9,9s4.037,9,9,9s9-4.037,9-9S31.963,18,27,18z M27,34c-3.859,0-7-3.141-7-7s3.141-7,7-7   s7,3.141,7,7S30.859,34,27,34z" fill="#ffffff"/></g><path d="M48.856,22.731c0.983-0.958,1.33-2.364,0.906-3.671c-0.425-1.307-1.532-2.24-2.892-2.438l-12.092-1.757  c-0.515-0.075-0.96-0.398-1.19-0.865L28.182,3.043c-0.607-1.231-1.839-1.996-3.212-1.996c-1.372,0-2.604,0.765-3.211,1.996  L16.352,14c-0.23,0.467-0.676,0.79-1.191,0.865L3.069,16.623C1.71,16.82,0.603,17.753,0.178,19.06  c-0.424,1.307-0.077,2.713,0.906,3.671l8.749,8.528c0.373,0.364,0.544,0.888,0.456,1.4L8.224,44.702  c-0.232,1.353,0.313,2.694,1.424,3.502c1.11,0.809,2.555,0.914,3.772,0.273l10.814-5.686c0.461-0.242,1.011-0.242,1.472,0  l10.815,5.686c0.528,0.278,1.1,0.415,1.669,0.415c0.739,0,1.475-0.231,2.103-0.688c1.111-0.808,1.656-2.149,1.424-3.502  L39.651,32.66c-0.088-0.513,0.083-1.036,0.456-1.4L48.856,22.731z M37.681,32.998l2.065,12.042c0.104,0.606-0.131,1.185-0.629,1.547  c-0.499,0.361-1.12,0.405-1.665,0.121l-10.815-5.687c-0.521-0.273-1.095-0.411-1.667-0.411s-1.145,0.138-1.667,0.412l-10.813,5.686  c-0.547,0.284-1.168,0.24-1.666-0.121c-0.498-0.362-0.732-0.94-0.629-1.547l2.065-12.042c0.199-1.162-0.186-2.348-1.03-3.17  L2.48,21.299c-0.441-0.43-0.591-1.036-0.4-1.621c0.19-0.586,0.667-0.988,1.276-1.077l12.091-1.757  c1.167-0.169,2.176-0.901,2.697-1.959l5.407-10.957c0.272-0.552,0.803-0.881,1.418-0.881c0.616,0,1.146,0.329,1.419,0.881  l5.407,10.957c0.521,1.058,1.529,1.79,2.696,1.959l12.092,1.757c0.609,0.089,1.086,0.491,1.276,1.077  c0.19,0.585,0.041,1.191-0.4,1.621l-8.749,8.528C37.866,30.65,37.481,31.835,37.681,32.998z" transform="matrix(1.201441764831543 0 0 1.201441764831543 70 267.99999946835624)" id="L1_12" fill="#ffffff"/><g transform="matrix(0.8320503146339013 -0.41602517284448576 0.41602517284448576 0.8320503146339013 165.5577353756484 304.51924574631755)" id="L1_13"><path d="M42,10c-2.206,0-4,1.794-4,4v1.267L6.955,25.051C6.731,23.335,5.276,22,3.5,22C1.57,22,0,23.57,0,25.5v9   C0,36.43,1.57,38,3.5,38c1.776,0,3.231-1.335,3.455-3.051l2.134,0.672c-0.316,0.346-0.569,0.758-0.723,1.232   c-0.578,1.783,0.402,3.705,2.187,4.283l11.415,3.698h0.001c0.347,0.112,0.698,0.166,1.044,0.166c1.435,0,2.772-0.917,3.238-2.354   c0.171-0.53,0.191-1.068,0.107-1.584L38,44.733V46c0,2.206,1.794,4,4,4s4-1.794,4-4V14C46,11.794,44.206,10,42,10z M24.348,42.031   c-0.238,0.735-1.03,1.14-1.764,0.901l-11.415-3.698c-0.735-0.238-1.14-1.029-0.901-1.764c0.239-0.734,1.029-1.137,1.763-0.9   l11.417,3.698C24.182,40.506,24.585,41.297,24.348,42.031z M5,34.5C5,35.327,4.327,36,3.5,36S2,35.327,2,34.5v-9   C2,24.673,2.673,24,3.5,24S5,24.673,5,25.5v0.167v8.666V34.5z M7,32.866v-5.732l31-9.771v25.273L7,32.866z M44,46   c0,1.103-0.897,2-2,2s-2-0.897-2-2v-0.637V14.637V14c0-1.103,0.897-2,2-2s2,0.897,2,2V46z" fill="#ffffff"/><path d="M55,29h-1c-0.553,0-1,0.447-1,1s0.447,1,1,1h1c0.553,0,1-0.447,1-1S55.553,29,55,29z" fill="#ffffff"/><path d="M50,31h1c0.553,0,1-0.447,1-1s-0.447-1-1-1h-1c-0.553,0-1,0.447-1,1S49.447,31,50,31z" fill="#ffffff"/><path d="M59,29h-1c-0.553,0-1,0.447-1,1s0.447,1,1,1h1c0.553,0,1-0.447,1-1S59.553,29,59,29z" fill="#ffffff"/><path d="M52.828,16.536c0.256,0,0.512-0.098,0.707-0.293l0.707-0.707c0.391-0.391,0.391-1.023,0-1.414s-1.023-0.391-1.414,0   l-0.707,0.707c-0.391,0.391-0.391,1.023,0,1.414C52.316,16.438,52.572,16.536,52.828,16.536z" fill="#ffffff"/><path d="M55.657,13.707c0.256,0,0.512-0.098,0.707-0.293l0.707-0.707c0.391-0.391,0.391-1.023,0-1.414s-1.023-0.391-1.414,0   L54.95,12c-0.391,0.391-0.391,1.023,0,1.414C55.146,13.609,55.401,13.707,55.657,13.707z" fill="#ffffff"/><path d="M50,19.364c0.256,0,0.512-0.098,0.707-0.293l0.707-0.707c0.391-0.391,0.391-1.023,0-1.414s-1.023-0.391-1.414,0   l-0.707,0.707c-0.391,0.391-0.391,1.023,0,1.414C49.488,19.267,49.744,19.364,50,19.364z" fill="#ffffff"/><path d="M50.632,23.1l-0.948,0.316c-0.524,0.175-0.807,0.741-0.632,1.265c0.14,0.419,0.529,0.684,0.948,0.684   c0.104,0,0.212-0.017,0.316-0.052l0.948-0.316c0.524-0.175,0.807-0.741,0.632-1.265S51.155,22.924,50.632,23.1z" fill="#ffffff"/><path d="M53.795,24.1c0.104,0,0.212-0.017,0.316-0.052l0.948-0.316c0.524-0.175,0.807-0.741,0.632-1.265s-0.74-0.808-1.265-0.632   l-0.948,0.316c-0.524,0.175-0.807,0.741-0.632,1.265C52.986,23.835,53.376,24.1,53.795,24.1z" fill="#ffffff"/><path d="M56.641,22.149c0.14,0.42,0.53,0.685,0.949,0.685c0.104,0,0.211-0.017,0.315-0.051l0.948-0.315   c0.524-0.175,0.808-0.741,0.634-1.265c-0.175-0.524-0.742-0.806-1.265-0.634l-0.948,0.315C56.75,21.06,56.467,21.626,56.641,22.149   z" fill="#ffffff"/><path d="M56.364,46.586c-0.391-0.391-1.023-0.391-1.414,0s-0.391,1.023,0,1.414l0.707,0.707C55.853,48.902,56.108,49,56.364,49   s0.512-0.098,0.707-0.293c0.391-0.391,0.391-1.023,0-1.414L56.364,46.586z" fill="#ffffff"/><path d="M53.535,43.757c-0.391-0.391-1.023-0.391-1.414,0s-0.391,1.023,0,1.414l0.707,0.707c0.195,0.195,0.451,0.293,0.707,0.293   s0.512-0.098,0.707-0.293c0.391-0.391,0.391-1.023,0-1.414L53.535,43.757z" fill="#ffffff"/><path d="M50.707,40.929c-0.391-0.391-1.023-0.391-1.414,0s-0.391,1.023,0,1.414L50,43.05c0.195,0.195,0.451,0.293,0.707,0.293   s0.512-0.098,0.707-0.293c0.391-0.391,0.391-1.023,0-1.414L50.707,40.929z" fill="#ffffff"/><path d="M53.479,37.849l0.948,0.316c0.104,0.035,0.212,0.052,0.316,0.052c0.419,0,0.809-0.265,0.948-0.684   c0.175-0.523-0.107-1.09-0.632-1.265l-0.948-0.316c-0.522-0.177-1.09,0.108-1.265,0.632S52.954,37.674,53.479,37.849z" fill="#ffffff"/><path d="M51.265,35.004l-0.948-0.316c-0.523-0.177-1.09,0.108-1.265,0.632s0.107,1.09,0.632,1.265l0.948,0.316   c0.104,0.035,0.212,0.052,0.316,0.052c0.419,0,0.809-0.265,0.948-0.684C52.071,35.745,51.789,35.179,51.265,35.004z" fill="#ffffff"/><path d="M58.854,37.532l-0.948-0.315c-0.522-0.173-1.091,0.109-1.265,0.634c-0.174,0.523,0.109,1.09,0.634,1.265l0.948,0.315   c0.104,0.034,0.211,0.051,0.315,0.051c0.419,0,0.81-0.265,0.949-0.685C59.661,38.273,59.378,37.707,58.854,37.532z" fill="#ffffff"/></g><path d="M26.525,10.5l-4.618-6.451L21.515,3.5H0v53h60v-46H26.525z M58,12.5v5H31.536l-3.579-5H58z M2,54.5v-49h18.485l5,7h0.012  l4.69,6.551c0.195,0.272,0.501,0.417,0.813,0.418V19.5h27v35H2z" transform="matrix(0.7994381160521441 -0.24982441510776143 0.24982441510776143 0.7994381160521441 73.52212406520283 33.511588971668516)" id="L1_15" fill="#ffffff"/><g transform="matrix(0.6842828989028931 0 0 0.6842828989028931 220.54039661603792 13.523108005523682)" id="L1_16"><path d="M31.02,21.428c0,0-0.001,0-0.001,0.001c0,0-0.001,0.001-0.001,0.001L0.092,52.355l4.243,4.242l40.341-40.342l-4.242-4.242   L31.02,21.428z M4.334,53.77L2.92,52.355L31.725,23.55l1.414,1.414L4.334,53.77z M34.554,23.55l-1.414-1.414l7.294-7.294   l1.414,1.414L34.554,23.55z" fill="#ffffff"/><path d="M40.506,9c0.552,0,1-0.447,1-1V1c0-0.553-0.448-1-1-1s-1,0.447-1,1v7C39.506,8.553,39.954,9,40.506,9z" fill="#ffffff"/><path d="M40.506,23c-0.552,0-1,0.447-1,1v7c0,0.553,0.448,1,1,1s1-0.447,1-1v-7C41.506,23.447,41.058,23,40.506,23z" fill="#ffffff"/><path d="M55.506,15h-7c-0.552,0-1,0.447-1,1s0.448,1,1,1h7c0.552,0,1-0.447,1-1S56.058,15,55.506,15z" fill="#ffffff"/><path d="M25.506,17h7c0.552,0,1-0.447,1-1s-0.448-1-1-1h-7c-0.552,0-1,0.447-1,1S24.954,17,25.506,17z" fill="#ffffff"/><path d="M46.506,11c0.256,0,0.512-0.098,0.707-0.293l4.95-4.95c0.391-0.391,0.391-1.023,0-1.414s-1.023-0.391-1.414,0l-4.95,4.95   c-0.391,0.391-0.391,1.023,0,1.414C45.994,10.902,46.25,11,46.506,11z" fill="#ffffff"/><path d="M47.213,21.293c-0.391-0.391-1.023-0.391-1.414,0s-0.391,1.023,0,1.414l4.95,4.95c0.195,0.195,0.451,0.293,0.707,0.293   s0.512-0.098,0.707-0.293c0.391-0.391,0.391-1.023,0-1.414L47.213,21.293z" fill="#ffffff"/><path d="M33.799,10.707C33.994,10.902,34.25,11,34.506,11s0.512-0.098,0.707-0.293c0.391-0.391,0.391-1.023,0-1.414l-4.95-4.95   c-0.391-0.391-1.023-0.391-1.414,0s-0.391,1.023,0,1.414L33.799,10.707z" fill="#ffffff"/></g><path d="M44.5,14.5C35.953,14.5,29,21.453,29,30c0,7.444-6.056,13.5-13.5,13.5S2,37.444,2,30s6.056-13.5,13.5-13.5  c2.687,0,5.282,0.787,7.505,2.277c0.74,0.495,1.432,1.065,2.058,1.694c0.39,0.39,1.023,0.393,1.414,0.003  c0.392-0.39,0.393-1.023,0.003-1.415c-0.718-0.721-1.513-1.375-2.361-1.944C21.565,15.404,18.584,14.5,15.5,14.5  C6.953,14.5,0,21.453,0,30s6.953,15.5,15.5,15.5S31,38.547,31,30c0-7.444,6.056-13.5,13.5-13.5S58,22.556,58,30  s-6.056,13.5-13.5,13.5c-3.605,0-6.995-1.403-9.544-3.952c-0.391-0.391-1.023-0.391-1.414,0s-0.391,1.023,0,1.414  C36.469,43.889,40.36,45.5,44.5,45.5C53.047,45.5,60,38.547,60,30S53.047,14.5,44.5,14.5z" transform="matrix(0.6218981269645962 0.08884258738929902 -0.08884258738929902 0.6218981269645962 -1.9916661872589145 311.6777785693831)" id="L1_17" fill="#ffffff"/></defs><g fi:class="KUsePattern"><pattern id="pattern_L1_5" width="350" height="350" patternUnits="userSpaceOnUse"><use xlink:href="#L1_5" x="-350" y="-350"/><use xlink:href="#L1_5" x="0" y="-350"/><use xlink:href="#L1_5" x="350" y="-350"/><use xlink:href="#L1_5" x="-350" y="0"/><use xlink:href="#L1_5" x="0" y="0"/><use xlink:href="#L1_5" x="350" y="0"/><use xlink:href="#L1_5" x="-350" y="350"/><use xlink:href="#L1_5" x="0" y="350"/><use xlink:href="#L1_5" x="350" y="350"/></pattern><rect x="0" y="0" width="100%" height="100%" fill="url(#pattern_L1_5)"/></g><g fi:class="KUsePattern"><pattern id="pattern_L1_7" width="350" height="350" patternUnits="userSpaceOnUse"><use xlink:href="#L1_7" x="-350" y="-350"/><use xlink:href="#L1_7" x="0" y="-350"/><use xlink:href="#L1_7" x="350" y="-350"/><use xlink:href="#L1_7" x="-350" y="0"/><use xlink:href="#L1_7" x="0" y="0"/><use xlink:href="#L1_7" x="350" y="0"/><use xlink:href="#L1_7" x="-350" y="350"/><use xlink:href="#L1_7" x="0" y="350"/><use xlink:href="#L1_7" x="350" y="350"/></pattern><rect x="0" y="0" width="100%" height="100%" fill="url(#pattern_L1_7)"/></g><g fi:class="KUsePattern"><pattern id="pattern_L1_8" width="350" height="350" patternUnits="userSpaceOnUse"><use xlink:href="#L1_8" x="-350" y="-350"/><use xlink:href="#L1_8" x="0" y="-350"/><use xlink:href="#L1_8" x="350" y="-350"/><use xlink:href="#L1_8" x="-350" y="0"/><use xlink:href="#L1_8" x="0" y="0"/><use xlink:href="#L1_8" x="350" y="0"/><use xlink:href="#L1_8" x="-350" y="350"/><use xlink:href="#L1_8" x="0" y="350"/><use xlink:href="#L1_8" x="350" y="350"/></pattern><rect x="0" y="0" width="100%" height="100%" fill="url(#pattern_L1_8)"/></g><g fi:class="KUsePattern"><pattern id="pattern_L1_9" width="350" height="350" patternUnits="userSpaceOnUse"><use xlink:href="#L1_9" x="-350" y="-350"/><use xlink:href="#L1_9" x="0" y="-350"/><use xlink:href="#L1_9" x="350" y="-350"/><use xlink:href="#L1_9" x="-350" y="0"/><use xlink:href="#L1_9" x="0" y="0"/><use xlink:href="#L1_9" x="350" y="0"/><use xlink:href="#L1_9" x="-350" y="350"/><use xlink:href="#L1_9" x="0" y="350"/><use xlink:href="#L1_9" x="350" y="350"/></pattern><rect x="0" y="0" width="100%" height="100%" fill="url(#pattern_L1_9)"/></g><g fi:class="KUsePattern"><pattern id="pattern_L1_10" width="350" height="350" patternUnits="userSpaceOnUse"><use xlink:href="#L1_10" x="-350" y="-350"/><use xlink:href="#L1_10" x="0" y="-350"/><use xlink:href="#L1_10" x="350" y="-350"/><use xlink:href="#L1_10" x="-350" y="0"/><use xlink:href="#L1_10" x="0" y="0"/><use xlink:href="#L1_10" x="350" y="0"/><use xlink:href="#L1_10" x="-350" y="350"/><use xlink:href="#L1_10" x="0" y="350"/><use xlink:href="#L1_10" x="350" y="350"/></pattern><rect x="0" y="0" width="100%" height="100%" fill="url(#pattern_L1_10)"/></g><g fi:class="KUsePattern"><pattern id="pattern_L1_11" width="350" height="350" patternUnits="userSpaceOnUse"><use xlink:href="#L1_11" x="-350" y="-350"/><use xlink:href="#L1_11" x="0" y="-350"/><use xlink:href="#L1_11" x="350" y="-350"/><use xlink:href="#L1_11" x="-350" y="0"/><use xlink:href="#L1_11" x="0" y="0"/><use xlink:href="#L1_11" x="350" y="0"/><use xlink:href="#L1_11" x="-350" y="350"/><use xlink:href="#L1_11" x="0" y="350"/><use xlink:href="#L1_11" x="350" y="350"/></pattern><rect x="0" y="0" width="100%" height="100%" fill="url(#pattern_L1_11)"/></g><g fi:class="KUsePattern"><pattern id="pattern_L1_12" width="350" height="350" patternUnits="userSpaceOnUse"><use xlink:href="#L1_12" x="-350" y="-350"/><use xlink:href="#L1_12" x="0" y="-350"/><use xlink:href="#L1_12" x="350" y="-350"/><use xlink:href="#L1_12" x="-350" y="0"/><use xlink:href="#L1_12" x="0" y="0"/><use xlink:href="#L1_12" x="350" y="0"/><use xlink:href="#L1_12" x="-350" y="350"/><use xlink:href="#L1_12" x="0" y="350"/><use xlink:href="#L1_12" x="350" y="350"/></pattern><rect x="0" y="0" width="100%" height="100%" fill="url(#pattern_L1_12)"/></g><g fi:class="KUsePattern"><pattern id="pattern_L1_13" width="350" height="350" patternUnits="userSpaceOnUse"><use xlink:href="#L1_13" x="-350" y="-350"/><use xlink:href="#L1_13" x="0" y="-350"/><use xlink:href="#L1_13" x="350" y="-350"/><use xlink:href="#L1_13" x="-350" y="0"/><use xlink:href="#L1_13" x="0" y="0"/><use xlink:href="#L1_13" x="350" y="0"/><use xlink:href="#L1_13" x="-350" y="350"/><use xlink:href="#L1_13" x="0" y="350"/><use xlink:href="#L1_13" x="350" y="350"/></pattern><rect x="0" y="0" width="100%" height="100%" fill="url(#pattern_L1_13)"/></g><g fi:class="KUsePattern"><pattern id="pattern_L1_15" width="350" height="350" patternUnits="userSpaceOnUse"><use xlink:href="#L1_15" x="-350" y="-350"/><use xlink:href="#L1_15" x="0" y="-350"/><use xlink:href="#L1_15" x="350" y="-350"/><use xlink:href="#L1_15" x="-350" y="0"/><use xlink:href="#L1_15" x="0" y="0"/><use xlink:href="#L1_15" x="350" y="0"/><use xlink:href="#L1_15" x="-350" y="350"/><use xlink:href="#L1_15" x="0" y="350"/><use xlink:href="#L1_15" x="350" y="350"/></pattern><rect x="0" y="0" width="100%" height="100%" fill="url(#pattern_L1_15)"/></g><g fi:class="KUsePattern"><pattern id="pattern_L1_16" width="350" height="350" patternUnits="userSpaceOnUse"><use xlink:href="#L1_16" x="-350" y="-350"/><use xlink:href="#L1_16" x="0" y="-350"/><use xlink:href="#L1_16" x="350" y="-350"/><use xlink:href="#L1_16" x="-350" y="0"/><use xlink:href="#L1_16" x="0" y="0"/><use xlink:href="#L1_16" x="350" y="0"/><use xlink:href="#L1_16" x="-350" y="350"/><use xlink:href="#L1_16" x="0" y="350"/><use xlink:href="#L1_16" x="350" y="350"/></pattern><rect x="0" y="0" width="100%" height="100%" fill="url(#pattern_L1_16)"/></g><g fi:class="KUsePattern"><pattern id="pattern_L1_17" width="350" height="350" patternUnits="userSpaceOnUse"><use xlink:href="#L1_17" x="-350" y="-350"/><use xlink:href="#L1_17" x="0" y="-350"/><use xlink:href="#L1_17" x="350" y="-350"/><use xlink:href="#L1_17" x="-350" y="0"/><use xlink:href="#L1_17" x="0" y="0"/><use xlink:href="#L1_17" x="350" y="0"/><use xlink:href="#L1_17" x="-350" y="350"/><use xlink:href="#L1_17" x="0" y="350"/><use xlink:href="#L1_17" x="350" y="350"/></pattern><rect x="0" y="0" width="100%" height="100%" fill="url(#pattern_L1_17)"/></g></svg>