<svg xmlns="http://www.w3.org/2000/svg" width="156" height="32" viewBox="0 0 156 32" fill="none">
  <rect width="32" height="32" fill="#FF5E1D"/>
  <path d="M10.2692 10.8937L13.7175 13.3586L8.21398 21.0907L4.76562 18.6258L10.2692 10.8937Z" fill="white"/>
  <path d="M17.0273 10.9016L20.4756 13.3665L14.9721 21.0986L11.5237 18.6336L17.0273 10.9016Z" fill="white"/>
  <path d="M27.2337 13.3744L23.7853 10.9094L18.2818 18.6415L21.7302 21.1064L27.2337 13.3744Z" fill="white"/>
  <path fill-rule="evenodd" clip-rule="evenodd" d="M47.1432 9.99455H42.5628V14.8136H46.9688C47.6727 14.8379 48.3657 14.6343 48.9446 14.233C49.2348 14.0295 49.4693 13.7565 49.6269 13.4391C49.7844 13.1216 49.8599 12.7697 49.8464 12.4155C49.86 12.0812 49.7973 11.7482 49.6629 11.4419C49.5285 11.1355 49.326 10.8638 49.0708 10.6474C48.5289 10.2028 47.8437 9.97074 47.1432 9.99455ZM53.876 25.2203H49.7936C49.6247 24.9161 49.5028 24.5881 49.4322 24.2474C49.3273 23.7027 49.2816 23.1484 49.2957 22.594V21.3055C49.3634 20.4823 49.1895 19.6573 48.7954 18.9315C48.5161 18.6184 48.1655 18.3769 47.7734 18.2275C47.3812 18.0782 46.9589 18.0253 46.542 18.0733H42.5628V25.2192H38.8086V6.814H47.6687C49.1449 6.75435 50.5988 7.18969 51.7993 8.05088C52.3818 8.49529 52.8478 9.07437 53.1573 9.73844C53.4669 10.4025 53.6108 11.1318 53.5766 11.8636C53.5807 12.8247 53.3301 13.7697 52.8503 14.6024C52.4015 15.4223 51.6736 16.0541 50.7988 16.3832C51.4871 16.6075 52.0771 17.0621 52.4693 17.6705C52.9781 18.7042 53.2027 19.8546 53.1199 21.0037V22.1144C53.111 22.6426 53.1494 23.1706 53.2347 23.692C53.2703 23.8854 53.3455 24.0694 53.4554 24.2325C53.5654 24.3956 53.7078 24.5342 53.8737 24.6398L53.876 25.2203Z" fill="white"/>
  <path fill-rule="evenodd" clip-rule="evenodd" d="M69.0936 25.2202H55.3789V6.81384H68.6174V10.0196H59.0827V13.9334H67.8165V17.1151H59.0827V21.8365H69.0936V25.2202Z" fill="white"/>
  <path fill-rule="evenodd" clip-rule="evenodd" d="M85.6674 25.2202H81.788L74.3553 12.5703V25.2202H70.6504V6.81384H74.5515L81.9854 19.4878V6.81384H85.6639L85.6674 25.2202Z" fill="white"/>
  <path fill-rule="evenodd" clip-rule="evenodd" d="M101.559 10.1458H96.153V25.2201H92.3735V10.1458H86.998V6.81836H101.57L101.559 10.1458Z" fill="white"/>
  <path fill-rule="evenodd" clip-rule="evenodd" d="M121.203 25.2279H117.673V10.3566L113.969 25.2279H110.09L106.336 10.3566V25.2279H102.832V6.82153H108.414L112.011 20.7645L115.587 6.82153H121.203V25.2279Z" fill="white"/>
  <path fill-rule="evenodd" clip-rule="evenodd" d="M133.339 18.3848L130.761 10.508L128.237 18.3848H133.339ZM139.521 25.2277H135.567L134.341 21.4414H127.258L126.031 25.2277H122.102L128.61 6.82141H132.911L139.521 25.2277Z" fill="white"/>
  <path fill-rule="evenodd" clip-rule="evenodd" d="M155.638 25.2277H151.759L144.325 12.5778V25.2277H140.621V6.82141H144.522L151.956 19.4954V6.82141H155.636L155.638 25.2277Z" fill="white"/>
</svg>