<?xml version="1.0" encoding="utf-8"?>
<!-- Generator: Adobe Illustrator 19.0.0, SVG Export Plug-In . SVG Version: 6.00 Build 0)  -->
<svg version="1.1" id="Layer_1" xmlns="http://www.w3.org/2000/svg" xmlns:xlink="http://www.w3.org/1999/xlink" x="0px" y="0px"
	 viewBox="-245 338.5 120 117.5" style="enable-background:new -245 338.5 120 117.5;" xml:space="preserve">
<style type="text/css">
	.st0{fill:#FD7400;}
	.st1{fill:#FFFFFF;}
</style>
<g>
	<rect x="-245" y="338.5" class="st0" width="120" height="117.5"/>
	<g>
		<g>
			
				<rect x="-205.3" y="355.6" transform="matrix(-0.5726 0.8198 -0.8198 -0.5726 -10.8093 726.1517)" class="st1" width="21.2" height="9.4"/>
			
				<rect x="-190.2" y="355.6" transform="matrix(-0.5726 0.8198 -0.8198 -0.5726 12.9253 713.858)" class="st1" width="21.2" height="9.4"/>
			
				<rect x="-175" y="355.6" transform="matrix(-0.5726 0.8198 -0.8198 -0.5726 36.8367 701.336)" class="st1" width="21.2" height="9.4"/>
		</g>
		<g>
			<path class="st1" d="M-201.2,405.7h-5.4c-0.2-0.3-0.4-0.8-0.5-1.3c-0.1-0.5-0.2-1.2-0.2-2.2v-0.8v-0.8c0-1.4-0.2-2.5-0.7-3.1
				c-0.5-0.7-1.5-1.1-3-1.1h-5.2v9.3h-4.8v-24h11.7c2.2,0,4,0.5,5.4,1.6c1.6,1.2,2.3,2.8,2.3,5c0,1.3-0.3,2.5-1,3.6
				c-0.6,1.1-1.5,1.9-2.7,2.3c1,0.4,1.7,0.9,2.2,1.7c0.6,0.9,0.9,2.4,0.9,4.3v1.4c0,0.9,0,1.5,0.1,2.1c0.1,0.5,0.4,0.9,0.8,1.2
				L-201.2,405.7L-201.2,405.7z M-210.1,385.8h-6v6.3h5.8c1,0,1.9-0.3,2.6-0.8c0.8-0.6,1.2-1.4,1.2-2.4s-0.3-1.7-1-2.3
				C-208.2,386.1-209.1,385.8-210.1,385.8"/>
			<polygon class="st1" points="-181.2,405.7 -199.2,405.7 -199.2,381.7 -181.8,381.7 -181.8,385.8 -194.4,385.8 -194.4,390.9 
				-182.9,390.9 -182.9,395.1 -194.4,395.1 -194.4,401.3 -181.2,401.3 			"/>
			<polygon class="st1" points="-160.3,405.7 -165.4,405.7 -175.1,389.2 -175.1,405.7 -180,405.7 -180,381.7 -174.9,381.7 
				-165.1,398.2 -165.1,381.7 -160.3,381.7 			"/>
			<polygon class="st1" points="-139.3,386 -146.4,386 -146.4,405.7 -151.4,405.7 -151.4,386 -158.5,386 -158.5,381.7 -139.3,381.7 
							"/>
			<polygon class="st1" points="-196.9,433.1 -201.5,433.1 -201.5,413.7 -206.4,433.1 -211.5,433.1 -216.4,413.7 -216.4,433.1 
				-221,433.1 -221,409.1 -213.7,409.1 -209,427.3 -204.2,409.1 -196.9,409.1 			"/>
			<path class="st1" d="M-171.8,433.1h-5.2l-1.6-4.9h-9.4l-1.6,4.9h-5.2l8.6-24h5.7L-171.8,433.1z M-180,424.2l-3.4-10.3l-3.3,10.3
				H-180z"/>
			<polygon class="st1" points="-150.6,433.1 -155.7,433.1 -165.5,416.6 -165.5,433.1 -170.4,433.1 -170.4,409.1 -165.3,409.1 
				-155.5,425.6 -155.5,409.1 -150.6,409.1 			"/>
		</g>
	</g>
</g>
</svg>
